<svg width="64" height="64" viewBox="0 0 64 64" fill="none" xmlns="http://www.w3.org/2000/svg">
  <circle cx="32" cy="32" r="30" stroke="currentColor" stroke-width="2" fill="none"/>
  <path d="M16 24C16 18.4772 20.4772 14 26 14H38C43.5228 14 48 18.4772 48 24V40C48 45.5228 43.5228 50 38 50H26C20.4772 50 16 45.5228 16 40V24Z" fill="none" stroke="currentColor" stroke-width="2"/>
  <path d="M24 28C24 25.7909 25.7909 24 28 24H36C38.2091 24 40 25.7909 40 28V36C40 38.2091 38.2091 40 36 40H28C25.7909 40 24 38.2091 24 36V28Z" fill="currentColor" opacity="0.3"/>
  <circle cx="28" cy="32" r="2" fill="currentColor"/>
  <circle cx="36" cy="32" r="2" fill="currentColor"/>
  <path d="M32 20C32 18.8954 32.8954 18 34 18H30C31.1046 18 32 18.8954 32 20V44C32 45.1046 31.1046 46 30 46H34C32.8954 46 32 45.1046 32 44V20Z" fill="currentColor"/>
</svg> 